<svg width="32" height="32" viewBox="0 0 32 32" fill="none" xmlns="http://www.w3.org/2000/svg">
<path fill-rule="evenodd" clip-rule="evenodd" d="M30.1334 6.93325C30.7225 7.37508 30.8418 8.21081 30.4 8.79992L22.4 19.4666C22.0134 19.9821 21.3134 20.1473 20.7371 19.8592L11.0657 15.0235L3.73335 24.7999C3.29153 25.389 2.45579 25.5084 1.86669 25.0666C1.27758 24.6248 1.15819 23.789 1.60002 23.1999L9.60002 12.5332C9.98665 12.0177 10.6866 11.8525 11.263 12.1407L20.9343 16.9764L28.2667 7.19992C28.7085 6.61081 29.5442 6.49142 30.1334 6.93325Z" fill="#EFE5FE"/>
<path d="M29.3333 10.6666C30.8061 10.6666 32 9.47268 32 7.99992C32 6.52716 30.8061 5.33325 29.3333 5.33325C27.8606 5.33325 26.6667 6.52716 26.6667 7.99992C26.6667 9.47268 27.8606 10.6666 29.3333 10.6666Z" fill="#A27CF6"/>
<path d="M10.6667 15.9999C12.1394 15.9999 13.3333 14.806 13.3333 13.3333C13.3333 11.8605 12.1394 10.6666 10.6667 10.6666C9.19391 10.6666 8 11.8605 8 13.3333C8 14.806 9.19391 15.9999 10.6667 15.9999Z" fill="#A27CF6"/>
<path d="M2.66667 26.6666C4.13943 26.6666 5.33333 25.4727 5.33333 23.9999C5.33333 22.5272 4.13943 21.3333 2.66667 21.3333C1.19391 21.3333 0 22.5272 0 23.9999C0 25.4727 1.19391 26.6666 2.66667 26.6666Z" fill="#A27CF6"/>
<path d="M24 18.6666C24 20.1393 22.8061 21.3333 21.3333 21.3333C19.8606 21.3333 18.6667 20.1393 18.6667 18.6666C18.6667 17.1938 19.8606 15.9999 21.3333 15.9999C22.8061 15.9999 24 17.1938 24 18.6666Z" fill="#A27CF6"/>
</svg>
