<svg width="32" height="32" viewBox="0 0 32 32" fill="none" xmlns="http://www.w3.org/2000/svg">
<path fill-rule="evenodd" clip-rule="evenodd" d="M26.6666 24.6667C26.6666 23.5621 25.7712 22.6667 24.6666 22.6667L9.99998 22.6667C5.94989 22.6667 2.66664 19.3834 2.66664 15.3333C2.66664 11.2832 5.94989 8 9.99998 8L12 8L12 10.6667L9.99998 10.6667C7.42265 10.6667 5.33331 12.756 5.33331 15.3333C5.33331 17.9107 7.42265 20 9.99998 20L24.6666 20C27.244 20 29.3333 22.0893 29.3333 24.6667C29.3333 27.244 27.244 29.3333 24.6666 29.3333L3.99998 29.3333C3.2636 29.3333 2.66664 28.7364 2.66664 28C2.66664 27.2636 3.2636 26.6667 3.99998 26.6667L24.6666 26.6667C25.7712 26.6667 26.6666 25.7712 26.6666 24.6667Z" fill="#EEF4FA"/>
<path d="M12 8.00008C12 5.05456 14.3878 2.66675 17.3333 2.66675H24C24.7364 2.66675 25.3333 3.2637 25.3333 4.00008V14.6667C25.3333 15.4031 24.7364 16.0001 24 16.0001H17.3333C14.3878 16.0001 12 13.6123 12 10.6667V8.00008Z" fill="#005AEB"/>
<path d="M28 5.33325H25.3333V7.99992H28C28.7364 7.99992 29.3333 7.40296 29.3333 6.66659C29.3333 5.93021 28.7364 5.33325 28 5.33325Z" fill="#005AEB"/>
<path d="M28 10.6666H25.3333V13.3333H28C28.7364 13.3333 29.3333 12.7363 29.3333 11.9999C29.3333 11.2635 28.7364 10.6666 28 10.6666Z" fill="#005AEB"/>
</svg>
