<svg width="32" height="32" viewBox="0 0 32 32" fill="none" xmlns="http://www.w3.org/2000/svg">
<path d="M30.6667 7.99992C30.6667 6.52716 29.4727 5.33325 28 5.33325H25.3333C23.8606 5.33325 22.6667 6.52716 22.6667 7.99992V10.6666C22.6667 12.1393 23.8606 13.3333 25.3333 13.3333H28C29.4727 13.3333 30.6667 12.1393 30.6667 10.6666V7.99992Z" fill="#50D38D"/>
<path d="M30.6667 21.3333C30.6667 19.8605 29.4727 18.6666 28 18.6666H25.3333C23.8606 18.6666 22.6667 19.8605 22.6667 21.3333V23.9999C22.6667 25.4727 23.8606 26.6666 25.3333 26.6666H28C29.4727 26.6666 30.6667 25.4727 30.6667 23.9999V21.3333Z" fill="#50D38D"/>
<path d="M6.66666 11.9999C8.13942 11.9999 9.33332 13.1938 9.33332 14.6666V17.3333C9.33332 18.806 8.13942 19.9999 6.66666 19.9999H3.99999C2.52723 19.9999 1.33332 18.806 1.33332 17.3333V14.6666C1.33332 13.1938 2.52723 11.9999 3.99999 11.9999H6.66666Z" fill="#50D38D"/>
<path d="M22.6667 10.6667H18.6667C17.9303 10.6667 17.3333 11.2636 17.3333 12V20C17.3333 20.7364 17.9303 21.3333 18.6667 21.3333H22.6667V24H18.6667C16.4575 24 14.6667 22.2091 14.6667 20V17.3333H9.33332V14.6667H14.6667V12C14.6667 9.79086 16.4575 8 18.6667 8H22.6667V10.6667Z" fill="#B5E5CE"/>
</svg>
